<svg width="24" height="25" viewBox="0 0 24 25" fill="none" xmlns="http://www.w3.org/2000/svg">
<path d="M3 9.61V15.38C3 17.5 3 17.5 5 18.85L10.5 22.03C11.33 22.51 12.68 22.51 13.5 22.03L19 18.85C21 17.5 21 17.5 21 15.39V9.61C21 7.5 21 7.5 19 6.15L13.5 2.97C12.68 2.49 11.33 2.49 10.5 2.97L5 6.15C3 7.5 3 7.5 3 9.61Z" stroke="#343335" stroke-width="1.5" stroke-linecap="round" stroke-linejoin="round"/>
<path d="M12 15.5C12.7956 15.5 13.5587 15.1839 14.1213 14.6213C14.6839 14.0587 15 13.2956 15 12.5C15 11.7044 14.6839 10.9413 14.1213 10.3787C13.5587 9.81607 12.7956 9.5 12 9.5C11.2044 9.5 10.4413 9.81607 9.87868 10.3787C9.31607 10.9413 9 11.7044 9 12.5C9 13.2956 9.31607 14.0587 9.87868 14.6213C10.4413 15.1839 11.2044 15.5 12 15.5Z" stroke="#343335" stroke-width="1.5" stroke-linecap="round" stroke-linejoin="round"/>
</svg>
